<?xml version="1.0" encoding="UTF-8" standalone="no"?>
<!-- Generator: Adobe Illustrator 15.1.0, SVG Export Plug-In . SVG Version: 6.00 Build 0)  -->

<svg
   version="1.1"
   id="Warstwa_1"
   x="0px"
   y="0px"
   width="430.524px"
   height="90px"
   viewBox="0 0 430.524 90"
   enable-background="new 0 0 430.524 90"
   xml:space="preserve"
   sodipodi:docname="impan-logo.svg"
   inkscape:version="1.3.2 (091e20ef0f, 2023-11-25, custom)"
   xmlns:inkscape="http://www.inkscape.org/namespaces/inkscape"
   xmlns:sodipodi="http://sodipodi.sourceforge.net/DTD/sodipodi-0.dtd"
   xmlns="http://www.w3.org/2000/svg"
   xmlns:svg="http://www.w3.org/2000/svg"><defs
   id="defs49" /><sodipodi:namedview
   id="namedview49"
   pagecolor="#505050"
   bordercolor="#eeeeee"
   borderopacity="1"
   inkscape:showpageshadow="0"
   inkscape:pageopacity="0"
   inkscape:pagecheckerboard="0"
   inkscape:deskcolor="#505050"
   inkscape:zoom="1.8685421"
   inkscape:cx="170.45375"
   inkscape:cy="-73.051605"
   inkscape:window-width="1916"
   inkscape:window-height="1169"
   inkscape:window-x="0"
   inkscape:window-y="0"
   inkscape:window-maximized="1"
   inkscape:current-layer="Warstwa_1" />
<g
   id="g10">
	<rect
   fill-rule="evenodd"
   clip-rule="evenodd"
   fill="#1B365D"
   width="2.264"
   height="90"
   id="rect1" />
	<rect
   x="90.778"
   fill-rule="evenodd"
   clip-rule="evenodd"
   fill="#1B365D"
   width="2.264"
   height="90"
   id="rect2" />
	<rect
   y="87.736"
   fill-rule="evenodd"
   clip-rule="evenodd"
   fill="#1B365D"
   width="93.042"
   height="2.264"
   id="rect3" />
	<rect
   fill-rule="evenodd"
   clip-rule="evenodd"
   fill="#1B365D"
   width="93.042"
   height="2.264"
   id="rect4" />
	<path
   fill-rule="evenodd"
   clip-rule="evenodd"
   fill="#1B365D"
   d="M62.759,5.307c-14.15,0-25.684,11.461-25.684,25.684V59.01h18.892   V30.991c0-3.75,3.042-6.793,6.792-6.793c3.751,0,6.793,3.043,6.793,6.793V59.01h18.963V30.991   C88.515,16.769,76.981,5.307,62.759,5.307z"
   id="path4" />
	<path
   fill-rule="evenodd"
   clip-rule="evenodd"
   fill="#1B365D"
   d="M30.282,5.307c-9.521,0-17.832,5.142-22.289,12.806   c1.515-1.819,3.798-2.971,6.369-2.971c4.6,0,8.35,3.679,8.35,8.278c0,4.599-3.75,8.349-8.35,8.349c-4.598,0-8.277-3.75-8.277-8.349   c0-0.582,0.06-1.148,0.172-1.695c-1.112,2.873-1.729,5.996-1.729,9.267V59.01H23.42V30.991c0-3.75,3.043-6.793,6.862-6.793   c3.75,0,6.793,3.043,6.793,6.793V59.01h18.892V30.991C55.967,16.769,44.434,5.307,30.282,5.307z"
   id="path5" />
	<rect
   x="4.527"
   y="62.759"
   fill-rule="evenodd"
   clip-rule="evenodd"
   fill="#1B365D"
   width="7.571"
   height="22.713"
   id="rect5" />
	<path
   fill-rule="evenodd"
   clip-rule="evenodd"
   fill="#1B365D"
   d="M14.362,77.901c4.175,0,7.571-3.396,7.571-7.57   c0-4.175-3.396-7.572-7.571-7.572V77.901z"
   id="path6" />
	<g
   id="g7">
		<polygon
   fill-rule="evenodd"
   clip-rule="evenodd"
   fill="#1B365D"
   points="37.075,85.472 45.354,85.472 41.215,69.84   "
   id="polygon6" />
		<polygon
   fill-rule="evenodd"
   clip-rule="evenodd"
   fill="#1B365D"
   points="49.952,62.759 43.09,62.759 42.735,64.098     48.396,85.472 55.967,85.472   "
   id="polygon7" />
	</g>
	<polygon
   fill-rule="evenodd"
   clip-rule="evenodd"
   fill="#1B365D"
   points="69.552,70.331 77.122,85.472 69.552,85.472  "
   id="polygon8" />
	<polygon
   fill-rule="evenodd"
   clip-rule="evenodd"
   fill="#1B365D"
   points="69.552,62.759 77.122,62.759 88.515,85.472    80.943,85.472  "
   id="polygon9" />
	<polygon
   fill-rule="evenodd"
   clip-rule="evenodd"
   fill="#1B365D"
   points="88.515,62.759 80.943,62.759 88.515,77.901  "
   id="polygon10" />
</g>
<g
   id="g29">
	<path
   fill="#1B365D"
   d="M108.896,39.165V15.771h3.095v23.394H108.896z"
   id="path10" />
	<path
   fill="#1B365D"
   d="M117.079,39.165V22.218h2.587v2.41c1.244-1.863,3.041-2.793,5.388-2.793c1.021,0,1.961,0.183,2.818,0.552   c0.856,0.365,1.494,0.848,1.919,1.443c0.428,0.595,0.725,1.304,0.894,2.123c0.109,0.531,0.159,1.463,0.159,2.792v10.421h-2.867   V28.856c0-1.169-0.114-2.045-0.338-2.626c-0.224-0.58-0.62-1.042-1.185-1.386c-0.57-0.346-1.24-0.519-2.006-0.519   c-1.223,0-2.275,0.387-3.165,1.165c-0.888,0.776-1.331,2.25-1.331,4.419v9.256H117.079z"
   id="path11" />
	<path
   fill="#1B365D"
   d="M134.1,34.105l2.841-0.446c0.159,1.138,0.601,2.01,1.33,2.617c0.729,0.606,1.747,0.91,3.056,0.91   c1.317,0,2.297-0.269,2.937-0.807c0.638-0.536,0.957-1.168,0.957-1.89c0-0.65-0.283-1.16-0.848-1.532   c-0.393-0.255-1.373-0.579-2.932-0.974c-2.107-0.53-3.566-0.991-4.383-1.38c-0.811-0.388-1.426-0.925-1.846-1.609   c-0.424-0.689-0.634-1.446-0.634-2.275c0-0.755,0.174-1.455,0.52-2.097c0.347-0.645,0.816-1.179,1.414-1.605   c0.447-0.33,1.053-0.609,1.823-0.838c0.77-0.229,1.601-0.343,2.48-0.343c1.33,0,2.499,0.192,3.501,0.575   c1.003,0.383,1.747,0.903,2.225,1.555c0.479,0.656,0.808,1.53,0.99,2.626l-2.808,0.383c-0.129-0.873-0.498-1.553-1.109-2.042   c-0.61-0.491-1.472-0.734-2.59-0.734c-1.322,0-2.26,0.218-2.826,0.653c-0.562,0.435-0.844,0.946-0.844,1.532   c0,0.371,0.119,0.707,0.352,1.005c0.232,0.308,0.602,0.563,1.099,0.766c0.287,0.107,1.135,0.351,2.54,0.735   c2.028,0.542,3.446,0.986,4.249,1.331c0.802,0.346,1.431,0.85,1.887,1.509c0.461,0.659,0.688,1.479,0.688,2.458   c0,0.958-0.278,1.86-0.838,2.703c-0.557,0.848-1.363,1.5-2.417,1.965c-1.054,0.46-2.243,0.693-3.569,0.693   c-2.202,0-3.881-0.458-5.034-1.373S134.419,35.905,134.1,34.105z"
   id="path12" />
	<path
   fill="#1B365D"
   d="M157.849,36.596l0.415,2.537c-0.808,0.171-1.532,0.255-2.17,0.255c-1.04,0-1.852-0.163-2.421-0.495   c-0.575-0.33-0.98-0.764-1.213-1.301c-0.237-0.536-0.352-1.666-0.352-3.39v-9.75h-2.106v-2.234h2.106v-4.197l2.854-1.724v5.92   h2.886v2.234h-2.886v9.908c0,0.819,0.05,1.346,0.15,1.581c0.101,0.236,0.264,0.419,0.497,0.559   c0.228,0.139,0.552,0.207,0.979,0.207C156.91,36.707,157.329,36.67,157.849,36.596z"
   id="path13" />
	<path
   fill="#1B365D"
   d="M160.529,45.691l-0.319-2.697c0.63,0.171,1.178,0.256,1.646,0.256c0.639,0,1.148-0.107,1.527-0.319   c0.383-0.213,0.697-0.511,0.944-0.894c0.182-0.288,0.474-1.001,0.875-2.138c0.055-0.16,0.141-0.395,0.255-0.703l-6.429-16.979   h3.097l3.524,9.813c0.455,1.245,0.866,2.553,1.23,3.926c0.328-1.32,0.721-2.605,1.176-3.862l3.625-9.877h2.868l-6.443,17.234   c-0.692,1.862-1.226,3.143-1.609,3.845c-0.51,0.946-1.099,1.642-1.755,2.082c-0.661,0.442-1.445,0.664-2.361,0.664   C161.829,46.042,161.214,45.926,160.529,45.691z"
   id="path14" />
	<path
   fill="#1B365D"
   d="M183.258,36.596l0.415,2.537c-0.808,0.171-1.532,0.255-2.171,0.255c-1.04,0-1.851-0.163-2.422-0.495   c-0.574-0.33-0.979-0.764-1.212-1.301c-0.236-0.536-0.352-1.666-0.352-3.39v-9.75h-2.105v-2.234h2.105v-4.197l2.855-1.724v5.92   h2.886v2.234h-2.886v9.908c0,0.819,0.05,1.346,0.149,1.581c0.102,0.236,0.265,0.419,0.497,0.559   c0.229,0.139,0.552,0.207,0.98,0.207C182.318,36.707,182.737,36.67,183.258,36.596z"
   id="path15" />
	<path
   fill="#1B365D"
   d="M197.168,39.165v-2.489c-1.318,1.914-3.11,2.872-5.376,2.872c-0.999,0-1.933-0.191-2.798-0.574   c-0.867-0.383-1.511-0.864-1.93-1.445c-0.42-0.58-0.716-1.289-0.886-2.129c-0.117-0.564-0.177-1.457-0.177-2.681v-10.5h2.873v9.399   c0,1.5,0.059,2.51,0.173,3.032c0.182,0.754,0.565,1.346,1.148,1.78c0.588,0.429,1.309,0.645,2.17,0.645s1.669-0.22,2.426-0.664   c0.752-0.439,1.291-1.042,1.6-1.801c0.315-0.761,0.475-1.864,0.475-3.312v-9.08h2.868v16.947H197.168z"
   id="path16" />
	<path
   fill="#1B365D"
   d="M210.504,36.596l0.415,2.537c-0.808,0.171-1.533,0.255-2.171,0.255c-1.04,0-1.851-0.163-2.421-0.495   c-0.575-0.33-0.979-0.764-1.213-1.301c-0.237-0.536-0.351-1.666-0.351-3.39v-9.75h-2.106v-2.234h2.106v-4.197l2.854-1.724v5.92   h2.886v2.234h-2.886v9.908c0,0.819,0.05,1.346,0.149,1.581c0.102,0.236,0.265,0.419,0.497,0.559   c0.229,0.139,0.552,0.207,0.98,0.207C209.564,36.707,209.983,36.67,210.504,36.596z"
   id="path17" />
	<path
   fill="#1B365D"
   d="M222.662,39.165V15.771h4.656l5.534,16.563c0.511,1.544,0.884,2.697,1.117,3.463   c0.265-0.851,0.68-2.101,1.246-3.749l5.597-16.277h4.163v23.394h-2.981V19.584l-6.798,19.581h-2.79l-6.762-19.916v19.916H222.662z"
   id="path18" />
	<path
   fill="#1B365D"
   d="M260.655,37.074c-1.066,0.905-2.089,1.543-3.073,1.916c-0.984,0.372-2.037,0.558-3.164,0.558   c-1.859,0-3.292-0.456-4.29-1.364c-1.003-0.911-1.5-2.071-1.5-3.487c0-0.83,0.187-1.586,0.565-2.274   c0.378-0.684,0.871-1.236,1.482-1.65c0.61-0.415,1.304-0.729,2.065-0.942c0.564-0.147,1.417-0.292,2.553-0.431   c2.32-0.276,4.025-0.606,5.12-0.99c0.009-0.394,0.018-0.642,0.018-0.75c0-1.169-0.272-1.994-0.816-2.473   c-0.733-0.65-1.823-0.974-3.27-0.974c-1.349,0-2.348,0.237-2.989,0.709c-0.644,0.475-1.118,1.313-1.428,2.515l-2.809-0.382   c0.256-1.203,0.675-2.174,1.263-2.912c0.584-0.741,1.428-1.309,2.535-1.709c1.104-0.397,2.386-0.598,3.844-0.598   c1.446,0,2.621,0.171,3.524,0.511c0.902,0.34,1.567,0.769,1.992,1.286c0.43,0.516,0.726,1.167,0.894,1.954   c0.096,0.491,0.146,1.373,0.146,2.649v3.83c0,2.669,0.059,4.359,0.182,5.067c0.123,0.707,0.365,1.384,0.726,2.034h-2.996   C260.93,38.569,260.736,37.872,260.655,37.074z M260.414,30.66c-1.04,0.425-2.604,0.787-4.688,1.084   c-1.181,0.171-2.015,0.363-2.507,0.575c-0.489,0.212-0.867,0.524-1.132,0.932c-0.264,0.411-0.396,0.867-0.396,1.366   c0,0.766,0.287,1.404,0.866,1.915c0.579,0.511,1.427,0.767,2.544,0.767c1.107,0,2.088-0.242,2.949-0.728   c0.862-0.483,1.496-1.145,1.901-1.986c0.306-0.649,0.461-1.606,0.461-2.872V30.66z"
   id="path19" />
	<path
   fill="#1B365D"
   d="M274.037,36.596l0.414,2.537c-0.807,0.171-1.53,0.255-2.17,0.255c-1.039,0-1.851-0.163-2.421-0.495   c-0.574-0.33-0.98-0.764-1.213-1.301c-0.237-0.536-0.35-1.666-0.35-3.39v-9.75h-2.107v-2.234h2.107v-4.197l2.853-1.724v5.92h2.887   v2.234h-2.887v9.908c0,0.819,0.051,1.346,0.15,1.581c0.101,0.236,0.265,0.419,0.497,0.559c0.229,0.139,0.552,0.207,0.979,0.207   C273.098,36.707,273.516,36.67,274.037,36.596z"
   id="path20" />
	<path
   fill="#1B365D"
   d="M288.443,33.707l2.964,0.367c-0.465,1.734-1.336,3.08-2.599,4.038c-1.268,0.957-2.882,1.436-4.852,1.436   c-2.476,0-4.44-0.763-5.89-2.288c-1.45-1.528-2.18-3.668-2.18-6.425c0-2.851,0.734-5.063,2.202-6.637   c1.468-1.576,3.369-2.363,5.713-2.363c2.262,0,4.112,0.771,5.549,2.314c1.436,1.543,2.151,3.713,2.151,6.511   c0,0.17-0.005,0.425-0.014,0.765h-12.633c0.104,1.863,0.634,3.287,1.576,4.277c0.949,0.989,2.13,1.484,3.542,1.484   c1.054,0,1.952-0.275,2.695-0.831C287.414,35.802,288.007,34.92,288.443,33.707z M279.016,29.063h9.46   c-0.128-1.425-0.493-2.493-1.084-3.207c-0.918-1.105-2.103-1.659-3.558-1.659c-1.322,0-2.43,0.442-3.328,1.323   C279.607,26.403,279.111,27.584,279.016,29.063z"
   id="path21" />
	<path
   fill="#1B365D"
   d="M295.014,39.165V22.218h2.566v2.378c0.534-0.831,1.24-1.499,2.126-2.004   c0.88-0.503,1.886-0.757,3.013-0.757c1.254,0,2.284,0.26,3.087,0.782c0.802,0.522,1.367,1.249,1.696,2.186   c1.34-1.978,3.086-2.968,5.233-2.968c1.679,0,2.974,0.465,3.876,1.396c0.902,0.932,1.354,2.366,1.354,4.301v11.634h-2.854V28.489   c0-1.149-0.09-1.976-0.277-2.482c-0.188-0.503-0.524-0.911-1.013-1.219c-0.492-0.309-1.062-0.463-1.724-0.463   c-1.189,0-2.179,0.396-2.968,1.189c-0.784,0.792-1.181,2.061-1.181,3.806v9.846h-2.867V28.154c0-1.276-0.238-2.234-0.703-2.873   c-0.47-0.638-1.234-0.957-2.298-0.957c-0.806,0-1.555,0.211-2.242,0.638c-0.685,0.426-1.182,1.048-1.492,1.867   c-0.305,0.818-0.46,2-0.46,3.542v8.793H295.014z"
   id="path22" />
	<path
   fill="#1B365D"
   d="M333.28,37.074c-1.067,0.905-2.09,1.543-3.074,1.916c-0.985,0.372-2.037,0.558-3.164,0.558   c-1.86,0-3.291-0.456-4.29-1.364c-1.002-0.911-1.5-2.071-1.5-3.487c0-0.83,0.188-1.586,0.565-2.274   c0.379-0.684,0.871-1.236,1.482-1.65c0.611-0.415,1.304-0.729,2.065-0.942c0.564-0.147,1.418-0.292,2.553-0.431   c2.32-0.276,4.026-0.606,5.12-0.99c0.009-0.394,0.018-0.642,0.018-0.75c0-1.169-0.272-1.994-0.816-2.473   c-0.733-0.65-1.823-0.974-3.269-0.974c-1.35,0-2.349,0.237-2.99,0.709c-0.642,0.475-1.118,1.313-1.428,2.515l-2.809-0.382   c0.256-1.203,0.674-2.174,1.264-2.912c0.583-0.741,1.427-1.309,2.534-1.709c1.104-0.397,2.386-0.598,3.844-0.598   c1.444,0,2.621,0.171,3.524,0.511c0.903,0.34,1.569,0.769,1.992,1.286c0.43,0.516,0.726,1.167,0.894,1.954   c0.096,0.491,0.146,1.373,0.146,2.649v3.83c0,2.669,0.059,4.359,0.183,5.067c0.123,0.707,0.364,1.384,0.725,2.034h-2.996   C333.553,38.569,333.361,37.872,333.28,37.074z M333.038,30.66c-1.04,0.425-2.604,0.787-4.688,1.084   c-1.181,0.171-2.015,0.363-2.508,0.575c-0.486,0.212-0.866,0.524-1.131,0.932c-0.264,0.411-0.396,0.867-0.396,1.366   c0,0.766,0.288,1.404,0.866,1.915c0.579,0.511,1.428,0.767,2.545,0.767c1.107,0,2.088-0.242,2.95-0.728   c0.86-0.483,1.494-1.145,1.901-1.986c0.305-0.649,0.46-1.606,0.46-2.872V30.66z"
   id="path23" />
	<path
   fill="#1B365D"
   d="M346.661,36.596l0.414,2.537c-0.807,0.171-1.532,0.255-2.17,0.255c-1.039,0-1.851-0.163-2.421-0.495   c-0.574-0.33-0.979-0.764-1.214-1.301c-0.234-0.536-0.349-1.666-0.349-3.39v-9.75h-2.107v-2.234h2.107v-4.197l2.854-1.724v5.92   h2.886v2.234h-2.886v9.908c0,0.819,0.05,1.346,0.149,1.581c0.101,0.236,0.265,0.419,0.497,0.559   c0.228,0.139,0.552,0.207,0.98,0.207C345.722,36.707,346.141,36.67,346.661,36.596z"
   id="path24" />
	<path
   fill="#1B365D"
   d="M349.342,45.691l-0.319-2.697c0.63,0.171,1.177,0.256,1.646,0.256c0.639,0,1.148-0.107,1.526-0.319   c0.384-0.213,0.698-0.511,0.943-0.894c0.183-0.288,0.476-1.001,0.876-2.138c0.056-0.16,0.142-0.395,0.256-0.703l-6.428-16.979   h3.096l3.523,9.813c0.456,1.245,0.866,2.553,1.231,3.926c0.328-1.32,0.72-2.605,1.176-3.862l3.624-9.877h2.868l-6.441,17.234   c-0.693,1.862-1.227,3.143-1.61,3.845c-0.51,0.946-1.099,1.642-1.755,2.082c-0.661,0.442-1.444,0.664-2.361,0.664   C350.641,46.042,350.025,45.926,349.342,45.691z"
   id="path25" />
	<path
   fill="#1B365D"
   d="M376.857,32.957l2.821,0.368c-0.31,1.945-1.099,3.47-2.37,4.573c-1.269,1.099-2.832,1.65-4.679,1.65   c-2.32,0-4.185-0.756-5.594-2.275c-1.408-1.513-2.111-3.688-2.111-6.518c0-1.83,0.302-3.43,0.908-4.802   c0.605-1.373,1.526-2.403,2.768-3.086c1.24-0.688,2.585-1.031,4.043-1.031c1.838,0,3.342,0.465,4.514,1.396   c1.172,0.932,1.92,2.254,2.249,3.966l-2.791,0.431c-0.265-1.138-0.734-1.995-1.409-2.569c-0.679-0.575-1.495-0.861-2.447-0.861   c-1.45,0-2.622,0.519-3.53,1.554c-0.902,1.039-1.354,2.678-1.354,4.923c0,2.278,0.438,3.931,1.309,4.963   c0.871,1.033,2.011,1.548,3.414,1.548c1.128,0,2.066-0.347,2.822-1.037C376.172,35.458,376.652,34.393,376.857,32.957z"
   id="path26" />
	<path
   fill="#1B365D"
   d="M380.618,39.165v-2.331l10.783-12.382c-1.223,0.064-2.304,0.095-3.237,0.095h-6.908v-2.33h13.843v1.899   l-9.168,10.755l-1.77,1.962c1.284-0.095,2.488-0.143,3.62-0.143h7.827v2.474H380.618z"
   id="path27" />
	<path
   fill="#1B365D"
   d="M398.464,39.165V22.218h2.584v2.41c1.245-1.863,3.041-2.793,5.39-2.793c1.021,0,1.96,0.183,2.816,0.552   c0.858,0.365,1.497,0.848,1.921,1.443c0.429,0.595,0.725,1.304,0.895,2.123c0.108,0.531,0.158,1.463,0.158,2.792v10.421h-2.868   V28.856c0-1.169-0.114-2.045-0.337-2.626c-0.223-0.58-0.62-1.042-1.186-1.386c-0.569-0.346-1.239-0.519-2.006-0.519   c-1.223,0-2.275,0.387-3.164,1.165c-0.89,0.776-1.332,2.25-1.332,4.419v9.256H398.464z"
   id="path28" />
	<path
   fill="#1B365D"
   d="M416.505,45.691l-0.32-2.697c0.629,0.171,1.177,0.256,1.646,0.256c0.639,0,1.148-0.107,1.527-0.319   c0.382-0.213,0.697-0.511,0.943-0.894c0.183-0.288,0.475-1.001,0.876-2.138c0.054-0.16,0.141-0.395,0.255-0.703l-6.428-16.979   h3.095l3.525,9.813c0.455,1.245,0.866,2.553,1.23,3.926c0.328-1.32,0.721-2.605,1.176-3.862l3.624-9.877h2.869l-6.442,17.234   c-0.692,1.862-1.227,3.143-1.61,3.845c-0.51,0.946-1.099,1.642-1.754,2.082c-0.662,0.442-1.446,0.664-2.363,0.664   C417.803,46.042,417.188,45.926,416.505,45.691z"
   id="path29" />
</g>
<g
   id="g49">
	<path
   fill="#1B365D"
   d="M108.372,72.911V56.024h6.364c1.124,0,1.979,0.054,2.568,0.161c0.829,0.138,1.523,0.401,2.086,0.79   c0.56,0.387,1.011,0.93,1.354,1.629c0.338,0.7,0.51,1.466,0.51,2.305c0,1.435-0.454,2.651-1.37,3.646   c-0.915,0.995-2.563,1.492-4.949,1.492h-4.332v6.865H108.372z M110.603,64.053h4.365c1.444,0,2.468-0.269,3.073-0.806   c0.606-0.539,0.913-1.295,0.913-2.271c0-0.706-0.182-1.311-0.538-1.813c-0.354-0.503-0.824-0.835-1.411-0.998   c-0.375-0.1-1.07-0.149-2.084-0.149h-4.318V64.053z"
   id="path30" />
	<path
   fill="#1B365D"
   d="M123.064,66.794c0-2.267,0.628-3.944,1.889-5.034c1.05-0.907,2.333-1.359,3.845-1.359   c1.682,0,3.054,0.551,4.119,1.652c1.071,1.103,1.604,2.625,1.604,4.568c0,1.576-0.236,2.813-0.707,3.716   c-0.475,0.902-1.162,1.604-2.064,2.102c-0.901,0.499-1.886,0.749-2.951,0.749c-1.712,0-3.094-0.55-4.151-1.648   C123.591,70.442,123.064,68.859,123.064,66.794z M125.194,66.794c0,1.566,0.341,2.74,1.022,3.52   c0.685,0.778,1.544,1.168,2.581,1.168c1.029,0,1.886-0.392,2.566-1.174c0.686-0.784,1.024-1.979,1.024-3.583   c0-1.512-0.343-2.659-1.031-3.437c-0.685-0.78-1.54-1.171-2.56-1.171c-1.037,0-1.896,0.389-2.581,1.164   C125.535,64.056,125.194,65.228,125.194,66.794z"
   id="path31" />
	<path
   fill="#1B365D"
   d="M136.904,72.911V56.024h2.072v16.887H136.904z"
   id="path32" />
	<path
   fill="#1B365D"
   d="M141.36,69.259l2.051-0.322c0.114,0.821,0.434,1.451,0.961,1.889c0.525,0.438,1.26,0.656,2.206,0.656   c0.95,0,1.658-0.194,2.118-0.583c0.461-0.387,0.691-0.842,0.691-1.363c0-0.47-0.204-0.839-0.612-1.107   c-0.284-0.185-0.99-0.418-2.116-0.703c-1.521-0.383-2.574-0.715-3.163-0.996c-0.586-0.28-1.03-0.669-1.333-1.162   c-0.305-0.497-0.457-1.043-0.457-1.643c0-0.545,0.124-1.05,0.375-1.513c0.25-0.466,0.589-0.851,1.021-1.159   c0.322-0.239,0.759-0.439,1.316-0.606c0.557-0.164,1.155-0.246,1.791-0.246c0.96,0,1.803,0.138,2.527,0.415   c0.723,0.276,1.261,0.651,1.605,1.122c0.346,0.475,0.583,1.104,0.715,1.896l-2.028,0.277c-0.092-0.63-0.358-1.121-0.8-1.475   c-0.44-0.354-1.063-0.529-1.869-0.529c-0.954,0-1.632,0.158-2.04,0.472c-0.404,0.314-0.609,0.682-0.609,1.105   c0,0.268,0.086,0.51,0.254,0.727c0.168,0.221,0.435,0.406,0.792,0.552c0.208,0.078,0.82,0.253,1.834,0.53   c1.465,0.392,2.488,0.713,3.067,0.961c0.579,0.25,1.034,0.613,1.362,1.088c0.332,0.477,0.498,1.069,0.498,1.775   c0,0.69-0.202,1.343-0.606,1.952c-0.401,0.613-0.984,1.083-1.744,1.419c-0.76,0.332-1.619,0.5-2.577,0.5   c-1.59,0-2.801-0.331-3.633-0.99C142.124,71.537,141.591,70.557,141.36,69.259z"
   id="path33" />
	<path
   fill="#1B365D"
   d="M153.992,72.911V56.024h2.07v9.63l4.907-4.977h2.683l-4.673,4.539l5.143,7.695h-2.554l-4.042-6.255   l-1.464,1.406v4.849H153.992z"
   id="path34" />
	<path
   fill="#1B365D"
   d="M165.782,58.409v-2.385h2.07v2.385H165.782z M165.782,72.911V60.677h2.07v12.233H165.782z"
   id="path35" />
	<path
   fill="#1B365D"
   d="M179.381,68.972l2.14,0.264c-0.337,1.252-0.964,2.224-1.876,2.915c-0.916,0.691-2.08,1.037-3.503,1.037   c-1.786,0-3.205-0.551-4.251-1.652c-1.048-1.103-1.573-2.647-1.573-4.638c0-2.059,0.529-3.654,1.588-4.792   c1.061-1.137,2.434-1.705,4.125-1.705c1.632,0,2.968,0.556,4.005,1.67c1.037,1.115,1.555,2.681,1.555,4.7   c0,0.123-0.004,0.308-0.011,0.554h-9.12c0.076,1.344,0.457,2.373,1.14,3.087c0.684,0.714,1.536,1.071,2.557,1.071   c0.76,0,1.409-0.199,1.945-0.599C178.637,70.483,179.065,69.847,179.381,68.972z M172.574,65.619h6.829   c-0.092-1.028-0.355-1.8-0.783-2.316c-0.66-0.797-1.518-1.197-2.566-1.197c-0.955,0-1.755,0.319-2.402,0.956   C173.002,63.699,172.644,64.551,172.574,65.619z"
   id="path36" />
	<path
   fill="#1B365D"
   d="M181.486,77.658l0.393-1.763c0.415,0.107,0.74,0.161,0.978,0.161c0.425,0,0.737-0.14,0.944-0.419   c0.207-0.282,0.313-0.982,0.313-2.103V60.677h2.07V73.58c0,1.505-0.193,2.553-0.585,3.144c-0.501,0.769-1.327,1.152-2.489,1.152   C182.55,77.875,182.011,77.803,181.486,77.658z M184.113,58.431v-2.407h2.07v2.407H184.113z"
   id="path37" />
	<path
   fill="#1B365D"
   d="M193.029,72.911l6.481-16.887h2.405l6.909,16.887h-2.545l-1.969-5.114h-7.059l-1.854,5.114H193.029z    M197.897,65.976h5.724l-1.76-4.677c-0.54-1.42-0.939-2.588-1.198-3.501c-0.216,1.082-0.521,2.158-0.913,3.225L197.897,65.976z"
   id="path38" />
	<path
   fill="#1B365D"
   d="M210.357,72.911V56.024h2.071v9.63l4.907-4.977h2.682l-4.674,4.539l5.146,7.695h-2.555l-4.041-6.255   l-1.465,1.406v4.849H210.357z"
   id="path39" />
	<path
   fill="#1B365D"
   d="M230.115,71.402c-0.77,0.653-1.507,1.114-2.218,1.382c-0.711,0.269-1.471,0.403-2.284,0.403   c-1.343,0-2.377-0.329-3.098-0.984c-0.724-0.658-1.083-1.495-1.083-2.517c0-0.6,0.136-1.146,0.409-1.643   c0.272-0.494,0.627-0.892,1.069-1.191c0.44-0.3,0.941-0.527,1.491-0.679c0.407-0.107,1.023-0.211,1.843-0.312   c1.676-0.198,2.906-0.438,3.695-0.714c0.007-0.284,0.014-0.463,0.014-0.541c0-0.845-0.196-1.441-0.589-1.786   c-0.53-0.469-1.316-0.703-2.36-0.703c-0.974,0-1.694,0.171-2.158,0.512c-0.465,0.342-0.807,0.948-1.03,1.815l-2.027-0.277   c0.185-0.866,0.486-1.567,0.911-2.101c0.422-0.535,1.03-0.945,1.83-1.235c0.798-0.286,1.721-0.431,2.775-0.431   c1.043,0,1.891,0.123,2.544,0.369c0.651,0.245,1.132,0.554,1.438,0.928c0.31,0.372,0.523,0.843,0.646,1.411   c0.069,0.354,0.105,0.991,0.105,1.912v2.766c0,1.926,0.043,3.146,0.131,3.658c0.09,0.511,0.264,0.999,0.524,1.468h-2.162   C230.313,72.481,230.175,71.978,230.115,71.402z M229.94,66.771c-0.749,0.308-1.879,0.569-3.382,0.784   c-0.853,0.123-1.455,0.262-1.811,0.414c-0.354,0.154-0.626,0.379-0.816,0.674c-0.191,0.295-0.286,0.625-0.286,0.985   c0,0.553,0.207,1.014,0.625,1.381c0.418,0.369,1.029,0.554,1.837,0.554c0.799,0,1.507-0.174,2.13-0.525   c0.621-0.348,1.078-0.825,1.371-1.433c0.221-0.469,0.332-1.16,0.332-2.073V66.771z"
   id="path40" />
	<path
   fill="#1B365D"
   d="M243.185,72.911v-1.543c-0.776,1.214-1.916,1.82-3.419,1.82c-0.978,0-1.873-0.268-2.689-0.807   c-0.819-0.538-1.451-1.288-1.898-2.25c-0.451-0.964-0.674-2.072-0.674-3.324c0-1.221,0.203-2.328,0.607-3.324   c0.409-0.994,1.019-1.756,1.833-2.286c0.813-0.53,1.722-0.795,2.729-0.795c0.733,0,1.392,0.154,1.968,0.468   c0.576,0.309,1.043,0.714,1.405,1.214v-6.059h2.061v16.887H243.185z M236.633,66.806c0,1.566,0.329,2.739,0.989,3.513   c0.659,0.775,1.439,1.164,2.337,1.164c0.905,0,1.676-0.371,2.308-1.113c0.636-0.74,0.952-1.871,0.952-3.391   c0-1.674-0.324-2.904-0.968-3.687c-0.646-0.783-1.438-1.175-2.384-1.175c-0.921,0-1.691,0.377-2.307,1.13   C236.942,63.999,236.633,65.185,236.633,66.806z"
   id="path41" />
	<path
   fill="#1B365D"
   d="M256.738,68.972l2.139,0.264c-0.335,1.252-0.963,2.224-1.875,2.915c-0.915,0.691-2.08,1.037-3.502,1.037   c-1.787,0-3.205-0.551-4.252-1.652c-1.047-1.103-1.573-2.647-1.573-4.638c0-2.059,0.528-3.654,1.589-4.792   c1.061-1.137,2.433-1.705,4.125-1.705c1.632,0,2.969,0.556,4.005,1.67c1.037,1.115,1.554,2.681,1.554,4.7   c0,0.123-0.004,0.308-0.01,0.554h-9.12c0.076,1.344,0.458,2.373,1.14,3.087c0.683,0.714,1.535,1.071,2.556,1.071   c0.761,0,1.409-0.199,1.945-0.599C255.994,70.483,256.424,69.847,256.738,68.972z M249.933,65.619h6.829   c-0.092-1.028-0.355-1.8-0.783-2.316c-0.661-0.797-1.518-1.197-2.566-1.197c-0.955,0-1.755,0.319-2.404,0.956   C250.36,63.699,250.001,64.551,249.933,65.619z"
   id="path42" />
	<path
   fill="#1B365D"
   d="M261.481,72.911V60.677h1.853v1.716c0.386-0.598,0.896-1.081,1.533-1.446   c0.637-0.365,1.363-0.547,2.176-0.547c0.905,0,1.65,0.188,2.229,0.564c0.579,0.376,0.987,0.902,1.225,1.578   c0.967-1.427,2.229-2.142,3.778-2.142c1.211,0,2.146,0.335,2.798,1.006c0.652,0.674,0.978,1.708,0.978,3.106v8.397h-2.061v-7.707   c0-0.829-0.065-1.426-0.201-1.791c-0.134-0.365-0.378-0.659-0.73-0.881c-0.355-0.222-0.766-0.334-1.243-0.334   c-0.86,0-1.573,0.286-2.145,0.859c-0.565,0.571-0.852,1.488-0.852,2.747v7.107h-2.069v-7.948c0-0.921-0.172-1.613-0.507-2.073   c-0.339-0.461-0.893-0.692-1.658-0.692c-0.584,0-1.124,0.153-1.62,0.46c-0.494,0.308-0.853,0.757-1.077,1.348   c-0.221,0.591-0.332,1.443-0.332,2.558v6.347H261.481z"
   id="path43" />
	<path
   fill="#1B365D"
   d="M281.137,58.409v-2.385h2.07v2.385H281.137z M281.137,72.911V60.677h2.07v12.233H281.137z"
   id="path44" />
	<path
   fill="#1B365D"
   d="M286.377,58.409v-2.385h2.069v2.385H286.377z M286.377,72.911V60.677h2.069v12.233H286.377z"
   id="path45" />
	<path
   fill="#1B365D"
   d="M298.4,72.911V56.024h2.29l8.866,13.258V56.024h2.139v16.887h-2.289l-8.867-13.27v13.27H298.4z"
   id="path46" />
	<path
   fill="#1B365D"
   d="M323.168,71.402c-0.771,0.653-1.51,1.114-2.22,1.382c-0.711,0.269-1.472,0.403-2.284,0.403   c-1.344,0-2.376-0.329-3.098-0.984c-0.724-0.658-1.082-1.495-1.082-2.517c0-0.6,0.135-1.146,0.408-1.643   c0.272-0.494,0.629-0.892,1.068-1.191c0.442-0.3,0.941-0.527,1.492-0.679c0.408-0.107,1.023-0.211,1.843-0.312   c1.675-0.198,2.906-0.438,3.696-0.714c0.006-0.284,0.014-0.463,0.014-0.541c0-0.845-0.198-1.441-0.59-1.786   c-0.53-0.469-1.316-0.703-2.359-0.703c-0.975,0-1.695,0.171-2.159,0.512c-0.464,0.342-0.807,0.948-1.031,1.815l-2.026-0.277   c0.184-0.866,0.486-1.567,0.911-2.101c0.421-0.535,1.03-0.945,1.83-1.235c0.797-0.286,1.722-0.431,2.774-0.431   c1.043,0,1.893,0.123,2.545,0.369c0.65,0.245,1.132,0.554,1.438,0.928c0.31,0.372,0.523,0.843,0.646,1.411   c0.069,0.354,0.105,0.991,0.105,1.912v2.766c0,1.926,0.043,3.146,0.132,3.658c0.089,0.511,0.262,0.999,0.522,1.468h-2.162   C323.363,72.481,323.226,71.978,323.168,71.402z M322.992,66.771c-0.75,0.308-1.879,0.569-3.384,0.784   c-0.853,0.123-1.455,0.262-1.811,0.414c-0.352,0.154-0.624,0.379-0.816,0.674c-0.19,0.295-0.285,0.625-0.285,0.985   c0,0.553,0.206,1.014,0.624,1.381c0.419,0.369,1.031,0.554,1.837,0.554c0.8,0,1.509-0.174,2.13-0.525   c0.622-0.348,1.079-0.825,1.372-1.433c0.221-0.469,0.333-1.16,0.333-2.073V66.771z"
   id="path47" />
	<path
   fill="#1B365D"
   d="M336.314,72.911v-1.796c-0.95,1.382-2.243,2.073-3.881,2.073c-0.72,0-1.395-0.139-2.02-0.415   c-0.626-0.277-1.09-0.624-1.393-1.043c-0.303-0.418-0.518-0.93-0.639-1.538c-0.085-0.407-0.128-1.051-0.128-1.935v-7.58h2.073   v6.785c0,1.083,0.043,1.813,0.126,2.188c0.13,0.545,0.407,0.973,0.828,1.285c0.425,0.309,0.945,0.466,1.567,0.466   s1.204-0.16,1.75-0.479c0.544-0.318,0.932-0.752,1.155-1.301c0.228-0.549,0.342-1.345,0.342-2.391v-6.555h2.071v12.233H336.314z"
   id="path48" />
	<path
   fill="#1B365D"
   d="M341.429,72.911V56.024h2.071v9.63l4.907-4.977h2.682l-4.674,4.539l5.145,7.695h-2.554l-4.041-6.255   l-1.465,1.406v4.849H341.429z"
   id="path49" />
</g>
</svg>
